#tb 0: 1/25
0,          0,          0,        1,    38016, 0xb96f1feb
0,          1,          1,        1,    38016, 0xca461abd
0,          2,          2,        1,    38016, 0x578a0c87
0,          3,          3,        1,    38016, 0xb3cc1ecb
0,          4,          4,        1,    38016, 0xd2c84463
0,          5,          5,        1,    38016, 0x815d6363
0,          6,          6,        1,    38016, 0x7cc17319
0,          7,          7,        1,    38016, 0x0f7e8cab
0,          8,          8,        1,    38016, 0x1876abee
0,          9,          9,        1,    38016, 0xda748c2f
0,         10,         10,        1,    38016, 0x7b4dbff0
0,         11,         11,        1,    38016, 0xd4a1b24a
0,         12,         12,        1,    38016, 0x714cb4cc
0,         13,         13,        1,    38016, 0x2c6d80f0
0,         14,         14,        1,    38016, 0x92266151
0,         15,         15,        1,    38016, 0x6b766a23
0,         16,         16,        1,    38016, 0xb24f7efe
0,         17,         17,        1,    38016, 0x8410838e
0,         18,         18,        1,    38016, 0x67fe872a
0,         19,         19,        1,    38016, 0x55b49d36
0,         20,         20,        1,    38016, 0x7a1c9c41
0,         21,         21,        1,    38016, 0xb4818e0e
0,         22,         22,        1,    38016, 0x25f6683c
0,         23,         23,        1,    38016, 0xe4d141a4
0,         24,         24,        1,    38016, 0x808216ad
0,         25,         25,        1,    38016, 0x2acf0baf
0,         26,         26,        1,    38016, 0xf3de13c4
0,         27,         27,        1,    38016, 0x5f412187
0,         28,         28,        1,    38016, 0xb31a340a
0,         29,         29,        1,    38016, 0x019d42d1
0,         30,         30,        1,    38016, 0xeeb94b9b
0,         31,         31,        1,    38016, 0xef55472e
0,         32,         32,        1,    38016, 0xdb5e3697
0,         33,         33,        1,    38016, 0x8565303e
0,         34,         34,        1,    38016, 0x5f9c2c1b
0,         35,         35,        1,    38016, 0xeb3d27f4
0,         36,         36,        1,    38016, 0x9a43282d
0,         37,         37,        1,    38016, 0xe04720c6
0,         38,         38,        1,    38016, 0x19cc0eba
0,         39,         39,        1,    38016, 0x218efeb6
0,         40,         40,        1,    38016, 0x7733f491
0,         41,         41,        1,    38016, 0x7f3bede9
0,         42,         42,        1,    38016, 0x49c5ec0d
0,         43,         43,        1,    38016, 0x803cf19e
0,         44,         44,        1,    38016, 0x31de0d3f
0,         45,         45,        1,    38016, 0xa7e30426
0,         46,         46,        1,    38016, 0xba37f068
0,         47,         47,        1,    38016, 0x2842bdf8
0,         48,         48,        1,    38016, 0x76df97dc
0,         49,         49,        1,    38016, 0xf3246d26
0,         50,         50,        1,    38016, 0x0a384d72
0,         51,         51,        1,    38016, 0x40964f41
0,         52,         52,        1,    38016, 0x46364324
0,         53,         53,        1,    38016, 0x7cbf3db4
0,         54,         54,        1,    38016, 0x7a223bec
0,         55,         55,        1,    38016, 0x458651c1
0,         56,         56,        1,    38016, 0xb82d7e3c
0,         57,         57,        1,    38016, 0x0f50a55d
0,         58,         58,        1,    38016, 0xc306cae4
0,         59,         59,        1,    38016, 0x9d6ddfcb
0,         60,         60,        1,    38016, 0xb602e8e9
0,         61,         61,        1,    38016, 0xbf0ae386
0,         62,         62,        1,    38016, 0x0a8bd46e
0,         63,         63,        1,    38016, 0xd437c5c1
0,         64,         64,        1,    38016, 0xd61d9959
0,         65,         65,        1,    38016, 0x70639b56
0,         66,         66,        1,    38016, 0x36fd407b
0,         67,         67,        1,    38016, 0x58ce3ddd
0,         68,         68,        1,    38016, 0x86cc1d8c
0,         69,         69,        1,    38016, 0xee422dc2
0,         70,         70,        1,    38016, 0xab475639
0,         71,         71,        1,    38016, 0xc1327ad8
0,         72,         72,        1,    38016, 0x63d196d4
0,         73,         73,        1,    38016, 0x1aba8ebd
0,         74,         74,        1,    38016, 0x74a269ac
0,         75,         75,        1,    38016, 0x267f3563
0,         76,         76,        1,    38016, 0xa18ff180
0,         77,         77,        1,    38016, 0x70c9c9fd
0,         78,         78,        1,    38016, 0xa6c59f9c
0,         79,         79,        1,    38016, 0xd7cd8927
0,         80,         80,        1,    38016, 0xd30b7345
0,         81,         81,        1,    38016, 0x679a4dda
0,         82,         82,        1,    38016, 0xeb0562de
0,         83,         83,        1,    38016, 0xdd7d6cdb
0,         84,         84,        1,    38016, 0xd6e26b73
0,         85,         85,        1,    38016, 0xa65a860f
0,         86,         86,        1,    38016, 0xae95c71e
0,         87,         87,        1,    38016, 0x1a89ca86
0,         88,         88,        1,    38016, 0xa33ecee6
0,         89,         89,        1,    38016, 0x821da6cb
0,         90,         90,        1,    38016, 0xf0e1612f
0,         91,         91,        1,    38016, 0x67b8516b
0,         92,         92,        1,    38016, 0x62f965bc
0,         93,         93,        1,    38016, 0xd1917aa6
0,         94,         94,        1,    38016, 0xe72db54d
0,         95,         95,        1,    38016, 0x9b64e721
0,         96,         96,        1,    38016, 0xa819efda
0,         97,         97,        1,    38016, 0xeacfdacb
0,         98,         98,        1,    38016, 0x52f235e1
0,         99,         99,        1,    38016, 0x2b512cb8
0,        100,        100,        1,    38016, 0xaac73fb3
0,        101,        101,        1,    38016, 0x7d2d504f
0,        102,        102,        1,    38016, 0x396d503a
0,        103,        103,        1,    38016, 0x97905235
0,        104,        104,        1,    38016, 0xf0056693
0,        105,        105,        1,    38016, 0x728a6a9e
0,        106,        106,        1,    38016, 0x0eed7824
0,        107,        107,        1,    38016, 0x59506237
0,        108,        108,        1,    38016, 0xd4304c93
0,        109,        109,        1,    38016, 0x7e663ee8
0,        110,        110,        1,    38016, 0x0ebc2d11
0,        111,        111,        1,    38016, 0x52db2112
0,        112,        112,        1,    38016, 0x74aa1815
0,        113,        113,        1,    38016, 0x57a60dc6
0,        114,        114,        1,    38016, 0x86e9fa32
0,        115,        115,        1,    38016, 0x67e8ff09
0,        116,        116,        1,    38016, 0x26e8f7ea
0,        117,        117,        1,    38016, 0x183dff56
0,        118,        118,        1,    38016, 0xa470af8d
0,        119,        119,        1,    38016, 0xe017d594
0,        120,        120,        1,    38016, 0xb899d48b
0,        121,        121,        1,    38016, 0x0d3bc5f7
0,        122,        122,        1,    38016, 0xd68bbb0d
0,        123,        123,        1,    38016, 0x8bf5b4cb
0,        124,        124,        1,    38016, 0x6bfcaa47
0,        125,        125,        1,    38016, 0x29a9b01b
0,        126,        126,        1,    38016, 0xcdedbdb7
0,        127,        127,        1,    38016, 0xdb5ad9c3
0,        128,        128,        1,    38016, 0x468aeef6
0,        129,        129,        1,    38016, 0xdc2b143e
0,        130,        130,        1,    38016, 0x6776277c
0,        131,        131,        1,    38016, 0xb78d5294
0,        132,        132,        1,    38016, 0x1dfb63ab
0,        133,        133,        1,    38016, 0xbd1f99bc
0,        134,        134,        1,    38016, 0xde16b89a
0,        135,        135,        1,    38016, 0xbf46edca
0,        136,        136,        1,    38016, 0x6306e8c4
0,        137,        137,        1,    38016, 0x7b09d224
0,        138,        138,        1,    38016, 0xfea1aff6
0,        139,        139,        1,    38016, 0x183686b0
0,        140,        140,        1,    38016, 0x665a61ff
0,        141,        141,        1,    38016, 0xc8af42d1
0,        142,        142,        1,    38016, 0xe2326bc1
0,        143,        143,        1,    38016, 0x56dbde82
0,        144,        144,        1,    38016, 0xa0254f97
0,        145,        145,        1,    38016, 0x3b74a0b4
0,        146,        146,        1,    38016, 0x9aee9b7f
0,        147,        147,        1,    38016, 0xd94b6133
0,        148,        148,        1,    38016, 0x5819f795
0,        149,        149,        1,    38016, 0xc45a8c02
0,        150,        150,        1,    38016, 0x2f9204a0
0,        151,        151,        1,    38016, 0xbe09e051
0,        152,        152,        1,    38016, 0xb542badd
0,        153,        153,        1,    38016, 0x23bd9e00
0,        154,        154,        1,    38016, 0x4f338d3d
0,        155,        155,        1,    38016, 0x8c91e8f3
0,        156,        156,        1,    38016, 0xa7347d57
0,        157,        157,        1,    38016, 0x6d91de4d
0,        158,        158,        1,    38016, 0x3443d936
0,        159,        159,        1,    38016, 0x9d25b4e2
0,        160,        160,        1,    38016, 0xd93cd4b3
0,        161,        161,        1,    38016, 0xa1c9e9a0
0,        162,        162,        1,    38016, 0x1482f220
0,        163,        163,        1,    38016, 0x1295f270
0,        164,        164,        1,    38016, 0x399ae9da
0,        165,        165,        1,    38016, 0x85dcdf28
0,        166,        166,        1,    38016, 0x4207b9e5
0,        167,        167,        1,    38016, 0xad1c9d75
0,        168,        168,        1,    38016, 0x4a266c14
0,        169,        169,        1,    38016, 0x3afc4508
0,        170,        170,        1,    38016, 0x2b1b2385
0,        171,        171,        1,    38016, 0x738f005f
0,        172,        172,        1,    38016, 0xfec3d833
0,        173,        173,        1,    38016, 0x3f7f6ae9
0,        174,        174,        1,    38016, 0xd8551823
0,        175,        175,        1,    38016, 0x6df03570
0,        176,        176,        1,    38016, 0x767c3054
0,        177,        177,        1,    38016, 0x89bd342c
0,        178,        178,        1,    38016, 0x77ba806c
0,        179,        179,        1,    38016, 0x1c98005c
0,        180,        180,        1,    38016, 0xa13ce2a3
0,        181,        181,        1,    38016, 0x1be59915
0,        182,        182,        1,    38016, 0x279c6027
0,        183,        183,        1,    38016, 0x96ac11a2
0,        184,        184,        1,    38016, 0x3ae95131
0,        185,        185,        1,    38016, 0xae19f7fe
0,        186,        186,        1,    38016, 0xcde4efe6
0,        187,        187,        1,    38016, 0x5ecc3f7a
0,        188,        188,        1,    38016, 0x79645152
0,        189,        189,        1,    38016, 0x1ee2e89f
0,        190,        190,        1,    38016, 0x91d34bb4
0,        191,        191,        1,    38016, 0xf019d464
0,        192,        192,        1,    38016, 0x8eb07205
0,        193,        193,        1,    38016, 0x5399bb5b
0,        194,        194,        1,    38016, 0x61f0c77a
0,        195,        195,        1,    38016, 0xb2bd8726
0,        196,        196,        1,    38016, 0x47b89243
0,        197,        197,        1,    38016, 0xebfe4d76
0,        198,        198,        1,    38016, 0xe8f87d91
0,        199,        199,        1,    38016, 0x5e9fb239
0,        200,        200,        1,    38016, 0x357ca1f8
0,        201,        201,        1,    38016, 0x757d2e02
0,        202,        202,        1,    38016, 0x40672e7c
0,        203,        203,        1,    38016, 0xd966abca
0,        204,        204,        1,    38016, 0xe98d0d47
0,        205,        205,        1,    38016, 0x341babf5
0,        206,        206,        1,    38016, 0xd12d5a0c
0,        207,        207,        1,    38016, 0xea2f99ab
0,        208,        208,        1,    38016, 0x14bce88e
0,        209,        209,        1,    38016, 0xe4bda9e8
0,        210,        210,        1,    38016, 0x2c57ec89
0,        211,        211,        1,    38016, 0x28bbb83e
0,        212,        212,        1,    38016, 0xf8444b54
0,        213,        213,        1,    38016, 0x3aba03cd
0,        214,        214,        1,    38016, 0x373daa20
0,        215,        215,        1,    38016, 0x69586597
0,        216,        216,        1,    38016, 0xc0c70d53
0,        217,        217,        1,    38016, 0x76a5df5a
0,        218,        218,        1,    38016, 0x1afde8f0
0,        219,        219,        1,    38016, 0x9638285a
0,        220,        220,        1,    38016, 0x9f0686c0
0,        221,        221,        1,    38016, 0xc65b2238
0,        222,        222,        1,    38016, 0x0d61b610
0,        223,        223,        1,    38016, 0x78e14e1f
0,        224,        224,        1,    38016, 0xcf80ac4a
0,        225,        225,        1,    38016, 0xe094083d
0,        226,        226,        1,    38016, 0xee5e612e
0,        227,        227,        1,    38016, 0x51cdad9d
0,        228,        228,        1,    38016, 0xae41100e
0,        229,        229,        1,    38016, 0x77558f58
0,        230,        230,        1,    38016, 0xb9503b95
0,        231,        231,        1,    38016, 0xb71dffeb
0,        232,        232,        1,    38016, 0x1872e3e6
0,        233,        233,        1,    38016, 0x29c3d252
0,        234,        234,        1,    38016, 0x1c77c6ec
0,        235,        235,        1,    38016, 0x26feb194
0,        236,        236,        1,    38016, 0x3307c3c4
0,        237,        237,        1,    38016, 0x8e5a8080
0,        238,        238,        1,    38016, 0x933472f7
0,        239,        239,        1,    38016, 0xd4768d84
0,        240,        240,        1,    38016, 0x3324485f
0,        241,        241,        1,    38016, 0xd50af078
0,        242,        242,        1,    38016, 0x53820752
0,        243,        243,        1,    38016, 0xbe7f1c47
0,        244,        244,        1,    38016, 0xe43d3a34
0,        245,        245,        1,    38016, 0x57194b82
0,        246,        246,        1,    38016, 0x68a052ed
0,        247,        247,        1,    38016, 0x5c898052
0,        248,        248,        1,    38016, 0x7104a6ad
0,        249,        249,        1,    38016, 0x1676b5e8
0,        250,        250,        1,    38016, 0xe1cfd375
0,        251,        251,        1,    38016, 0x16fede04
0,        252,        252,        1,    38016, 0xca49dd4a
0,        253,        253,        1,    38016, 0x7b98d9d1
0,        254,        254,        1,    38016, 0x4020d210
0,        255,        255,        1,    38016, 0x62c5d1e4
0,        256,        256,        1,    38016, 0x756abdb4
0,        257,        257,        1,    38016, 0x558fb00f
0,        258,        258,        1,    38016, 0x4ab0b1f1
0,        259,        259,        1,    38016, 0x7c9fb0c2
0,        260,        260,        1,    38016, 0xcecfbdd0
0,        261,        261,        1,    38016, 0x70e6d174
0,        262,        262,        1,    38016, 0x83d7ddde
0,        263,        263,        1,    38016, 0xbbcde2d9
0,        264,        264,        1,    38016, 0xc89eeaef
0,        265,        265,        1,    38016, 0x8565e15c
0,        266,        266,        1,    38016, 0x28e0db24
0,        267,        267,        1,    38016, 0x1d9dd334
0,        268,        268,        1,    38016, 0xce02c452
0,        269,        269,        1,    38016, 0xe29dbd0c
0,        270,        270,        1,    38016, 0x4aa3b638
0,        271,        271,        1,    38016, 0x5533c135
0,        272,        272,        1,    38016, 0x6c57b65f
0,        273,        273,        1,    38016, 0x23d3b851
0,        274,        274,        1,    38016, 0xd8cbb960
0,        275,        275,        1,    38016, 0x02edb916
0,        276,        276,        1,    38016, 0xa622bd42
0,        277,        277,        1,    38016, 0x4ba5be1c
0,        278,        278,        1,    38016, 0xe69bb625
0,        279,        279,        1,    38016, 0xbca5b292
0,        280,        280,        1,    38016, 0xde38b1c8
0,        281,        281,        1,    38016, 0xe9e3b617
0,        282,        282,        1,    38016, 0x216cc574
0,        283,        283,        1,    38016, 0x3780c5ad
0,        284,        284,        1,    38016, 0x5531e3f9
0,        285,        285,        1,    38016, 0xe2c5f5d4
0,        286,        286,        1,    38016, 0x24cefc6e
0,        287,        287,        1,    38016, 0xa3ce003d
0,        288,        288,        1,    38016, 0x42d01c9e
0,        289,        289,        1,    38016, 0xbfc13689
0,        290,        290,        1,    38016, 0x122647a9
0,        291,        291,        1,    38016, 0xe45254da
0,        292,        292,        1,    38016, 0xad955b0c
0,        293,        293,        1,    38016, 0x4b086abb
0,        294,        294,        1,    38016, 0xd4857b8c
0,        295,        295,        1,    38016, 0xa71594ce
0,        296,        296,        1,    38016, 0x04e4a73d
0,        297,        297,        1,    38016, 0x295abf63
0,        298,        298,        1,    38016, 0xbe4ed5dd
0,        299,        299,        1,    38016, 0x087bcf64
